<?xml version="1.0" encoding="UTF-8" standalone="no"?>
<svg
   xmlns:svg="http://www.w3.org/2000/svg"
   xmlns="http://www.w3.org/2000/svg"
   width="800.0"
   height="240.0"

>
    <g transform="scale(3.3333333333333335, -3.3333333333333335)   translate(60.0,-56.0)" stroke-width="0.3"  fill="none">
       <!-- hidden lines -->
       <g  stroke="rgb(160,160,160)" fill="none" stroke-dasharray="0.3,0.3" >
			<path d="M0.0,0.0 L0.0,48.5 " />
			<path d="M-2.220446049250313e-16,48.5 L0.003821828084619616,48.60700877479885 L0.015267837178600585,48.713472257409926 L0.0342797010432605,48.81884793432946 L0.06076053957825356,48.92259883526214 L0.09457541250035706,49.024196269398644 L0.1355520069682219,49.12312251950283 L0.18348151564911608,49.218873480080084 L0.23811970075322764,49.310961226183395 L0.2991881386134587,49.39891649976702 L0.3663756384686119,49.48229110091793 L0.4393398282201779,49.56066017177982 L0.5177088990820715,49.63362436153139 L0.6010835002329786,49.70081186138654 L0.6890387738166026,49.76188029924677 L0.7811265199199136,49.81651848435088 L0.8768774804971691,49.864447993031774 L0.9758037306013512,49.905424587499645 L1.077401164737854,49.939239460421746 L1.1811520656705334,49.96572029895674 L1.2865277425900707,49.9847321628214 L1.3929912252011498,49.99617817191538 L1.4999999999999982,50.0 " />
			<path d="M0.0,0.0 L80.0,0.0 " />
			<path d="M1.4999999999999998,50.0 L78.5,50.0 " />
			<path d="M80.0,0.0 L80.0,48.5 " />
			<path d="M80.0,48.5 L79.99617817191537,48.60700877479885 L79.9847321628214,48.713472257409926 L79.96572029895674,48.81884793432946 L79.93923946042175,48.92259883526214 L79.90542458749964,49.024196269398644 L79.86444799303177,49.12312251950283 L79.81651848435088,49.218873480080084 L79.76188029924677,49.310961226183395 L79.70081186138654,49.39891649976702 L79.63362436153139,49.48229110091793 L79.56066017177982,49.56066017177982 L79.48229110091793,49.63362436153139 L79.39891649976703,49.70081186138654 L79.3109612261834,49.76188029924677 L79.21887348008009,49.81651848435088 L79.12312251950283,49.864447993031774 L79.02419626939864,49.905424587499645 L78.92259883526215,49.939239460421746 L78.81884793432947,49.96572029895674 L78.71347225740993,49.9847321628214 L78.60700877479886,49.99617817191538 L78.5,50.0 " />
			<path d="M0.0,-2.0 L0.0,-4.0 " />
			<path d="M80.0,-2.0 L80.0,-4.0 " />
			<path d="M0.0,-2.0 L80.0,-2.0 " />
			<path d="M0.0,-4.0 L80.0,-4.0 " />

       </g>

       <!-- solid lines -->
       <g  stroke="rgb(0,0,0)" fill="none">
			<path d="M0.0,0.0 L0.0,48.5 " />
			<path d="M-2.220446049250313e-16,48.5 L0.003821828084619616,48.60700877479885 L0.015267837178600585,48.713472257409926 L0.0342797010432605,48.81884793432946 L0.06076053957825356,48.92259883526214 L0.09457541250035706,49.024196269398644 L0.1355520069682219,49.12312251950283 L0.18348151564911608,49.218873480080084 L0.23811970075322764,49.310961226183395 L0.2991881386134587,49.39891649976702 L0.3663756384686119,49.48229110091793 L0.4393398282201779,49.56066017177982 L0.5177088990820715,49.63362436153139 L0.6010835002329786,49.70081186138654 L0.6890387738166026,49.76188029924677 L0.7811265199199136,49.81651848435088 L0.8768774804971691,49.864447993031774 L0.9758037306013512,49.905424587499645 L1.077401164737854,49.939239460421746 L1.1811520656705334,49.96572029895674 L1.2865277425900707,49.9847321628214 L1.3929912252011498,49.99617817191538 L1.4999999999999982,50.0 " />
			<path d="M0.0,0.0 L80.0,0.0 " />
			<path d="M1.4999999999999998,50.0 L78.5,50.0 " />
			<path d="M80.0,0.0 L80.0,48.5 " />
			<path d="M80.0,48.5 L79.99617817191537,48.60700877479885 L79.9847321628214,48.713472257409926 L79.96572029895674,48.81884793432946 L79.93923946042175,48.92259883526214 L79.90542458749964,49.024196269398644 L79.86444799303177,49.12312251950283 L79.81651848435088,49.218873480080084 L79.76188029924677,49.310961226183395 L79.70081186138654,49.39891649976702 L79.63362436153139,49.48229110091793 L79.56066017177982,49.56066017177982 L79.48229110091793,49.63362436153139 L79.39891649976703,49.70081186138654 L79.3109612261834,49.76188029924677 L79.21887348008009,49.81651848435088 L79.12312251950283,49.864447993031774 L79.02419626939864,49.905424587499645 L78.92259883526215,49.939239460421746 L78.81884793432947,49.96572029895674 L78.71347225740993,49.9847321628214 L78.60700877479886,49.99617817191538 L78.5,50.0 " />
			<path d="M0.0,-2.0 L0.0,-4.0 " />
			<path d="M80.0,-2.0 L80.0,-4.0 " />
			<path d="M0.0,-2.0 L80.0,-2.0 " />
			<path d="M0.0,-4.0 L80.0,-4.0 " />

       </g>
    </g>
    
</svg>
