<?xml version="1.0" encoding="UTF-8" standalone="no"?>
<svg
   xmlns:svg="http://www.w3.org/2000/svg"
   xmlns="http://www.w3.org/2000/svg"
   width="800.0"
   height="240.0"

>
    <g transform="scale(3.333333327160494, -3.333333327160494)   translate(60.000000211111114,-10.000000011111112)" stroke-width="0.30000000055555553"  fill="none">
       <!-- hidden lines -->
       <g  stroke="rgb(160,160,160)" fill="none" stroke-dasharray="0.30000000055555553,0.30000000055555553" >
			<path d="M2.0,0.0 L2.0,-48.5 " />
			<path d="M0.0,0.0 L2.0,0.0 " />
			<path d="M0.0,0.0 L0.0,-48.5 " />
			<path d="M2.0,-48.5 L2.0,-48.667946714154965 L2.0,-48.83378140093447 L2.0,-48.99541859293275 L2.0,-49.150825608676335 L2.0,-49.298048114773 L2.0,-49.4352347027881 L2.0,-49.56066017177982 L2.0,-49.672747223702046 L2.0,-49.77008629884243 L2.0,-49.85145330185363 L2.0,-49.91582499546255 L2.0,-49.96239186827273 L2.0,-49.99056831483986 L2.0,-50.0 " />
			<path d="M0.0,-48.5 L0.0,-48.667946714154965 L0.0,-48.83378140093447 L0.0,-48.99541859293275 L0.0,-49.150825608676335 L0.0,-49.298048114773 L0.0,-49.4352347027881 L0.0,-49.56066017177982 L0.0,-49.672747223702046 L0.0,-49.77008629884243 L0.0,-49.85145330185363 L0.0,-49.91582499546255 L0.0,-49.96239186827273 L0.0,-49.99056831483986 L0.0,-50.0 " />
			<path d="M0.0,-50.0 L2.0,-50.0 " />
			<path d="M0.0,2.0 L0.0,4.0 " />
			<path d="M0.0,4.0 L40.0,4.0 " />
			<path d="M40.0,2.0 L40.0,4.0 " />
			<path d="M0.0,2.0 L40.0,2.0 " />

       </g>

       <!-- solid lines -->
       <g  stroke="rgb(0,0,0)" fill="none">
			<path d="M2.0,0.0 L2.0,-48.5 " />
			<path d="M2.0,-48.5 L2.0,-48.667946714154965 L2.0,-48.83378140093447 L2.0,-48.99541859293275 L2.0,-49.150825608676335 L2.0,-49.298048114773 L2.0,-49.4352347027881 L2.0,-49.56066017177982 L2.0,-49.672747223702046 L2.0,-49.77008629884243 L2.0,-49.85145330185363 L2.0,-49.91582499546255 L2.0,-49.96239186827273 L2.0,-49.99056831483986 L2.0,-50.0 " />
			<path d="M0.0,0.0 L2.0,0.0 " />
			<path d="M0.0,0.0 L0.0,-48.5 " />
			<path d="M0.0,-48.5 L0.0,-48.667946714154965 L0.0,-48.83378140093447 L0.0,-48.99541859293275 L0.0,-49.150825608676335 L0.0,-49.298048114773 L0.0,-49.4352347027881 L0.0,-49.56066017177982 L0.0,-49.672747223702046 L0.0,-49.77008629884243 L0.0,-49.85145330185363 L0.0,-49.91582499546255 L0.0,-49.96239186827273 L0.0,-49.99056831483986 L0.0,-50.0 " />
			<path d="M0.0,-50.0 L2.0,-50.0 " />
			<path d="M0.0,2.0 L0.0,4.0 " />
			<path d="M0.0,4.0 L40.0,4.0 " />
			<path d="M40.0,2.0 L40.0,4.0 " />
			<path d="M0.0,2.0 L40.0,2.0 " />
			<path d="M0.0,-48.5 L2.0,-48.5 " />

       </g>
    </g>
    
</svg>
