<?xml version="1.0" encoding="UTF-8" standalone="no"?>
<svg
   xmlns:svg="http://www.w3.org/2000/svg"
   xmlns="http://www.w3.org/2000/svg"
   width="800.0"
   height="240.0"

>
    <g transform="scale(2.249999994375, -2.249999994375)   translate(128.8888891111111,-88.8888890111111)" stroke-width="0.44444444555555557"  fill="none">
       <!-- hidden lines -->
       <g  stroke="rgb(160,160,160)" fill="none" stroke-dasharray="0.44444444555555557,0.44444444555555557" >
			<path d="M0.0,-2.220446049250313e-16 L-2.0,-2.220446049250313e-16 " />
			<path d="M0.0,0.0 L-2.0,0.0 " />
			<path d="M-2.0,-2.220446049250313e-16 L-2.0,0.009431685160135928 L-2.0,0.03760813172726429 L-2.0,0.08417500453744853 L-2.0,0.148546698146371 L-2.0,0.22991370115757337 L-2.0,0.3272527762979549 L-2.0,0.43933982822017836 L-2.0,0.5647652972118994 L-2.0,0.7019518852269948 L-2.0,0.8491743913236625 L-2.0,1.004581407067249 L-2.0,1.166218599065528 L-2.0,1.3320532858450378 L-2.0,1.499999999999993 " />
			<path d="M-2.0,0.0 L-2.0,80.0 " />
			<path d="M-2.0,1.4999999999999998 L-2.0,78.5 " />
			<path d="M-2.0,80.0 L-2.0,79.99056831483986 L-2.0,79.96239186827273 L-2.0,79.91582499546256 L-2.0,79.85145330185362 L-2.0,79.77008629884243 L-2.0,79.67274722370205 L-2.0,79.56066017177982 L-2.0,79.4352347027881 L-2.0,79.29804811477301 L-2.0,79.15082560867634 L-2.0,78.99541859293275 L-2.0,78.83378140093447 L-2.0,78.66794671415497 L-2.0,78.5 " />
			<path d="M0.0,-2.220446049250313e-16 L0.0,0.009431685160135928 L0.0,0.03760813172726429 L0.0,0.08417500453744853 L0.0,0.148546698146371 L0.0,0.22991370115757337 L0.0,0.3272527762979549 L0.0,0.43933982822017836 L0.0,0.5647652972118994 L0.0,0.7019518852269948 L0.0,0.8491743913236625 L0.0,1.004581407067249 L0.0,1.166218599065528 L0.0,1.3320532858450378 L0.0,1.499999999999993 " />
			<path d="M0.0,0.0 L0.0,80.0 " />
			<path d="M0.0,80.0 L-2.0,80.0 " />
			<path d="M0.0,1.4999999999999998 L0.0,78.5 " />
			<path d="M0.0,80.0 L0.0,79.99056831483986 L0.0,79.96239186827273 L0.0,79.91582499546256 L0.0,79.85145330185362 L0.0,79.77008629884243 L0.0,79.67274722370205 L0.0,79.56066017177982 L0.0,79.4352347027881 L0.0,79.29804811477301 L0.0,79.15082560867634 L0.0,78.99541859293275 L0.0,78.83378140093447 L0.0,78.66794671415497 L0.0,78.5 " />
			<path d="M0.0,80.0 L-2.0,80.0 " />
			<path d="M0.0,0.0 L-40.0,0.0 " />
			<path d="M0.0,80.0 L-40.0,80.0 " />
			<path d="M0.0,0.0 L0.0,80.0 " />
			<path d="M-40.0,0.0 L-40.0,80.0 " />

       </g>

       <!-- solid lines -->
       <g  stroke="rgb(0,0,0)" fill="none">
			<path d="M0.0,0.0 L-40.0,0.0 " />
			<path d="M0.0,80.0 L-40.0,80.0 " />
			<path d="M0.0,0.0 L0.0,80.0 " />
			<path d="M-40.0,0.0 L-40.0,80.0 " />

       </g>
    </g>
    
</svg>
