<?xml version="1.0" encoding="UTF-8" standalone="no"?>
<svg
   xmlns:svg="http://www.w3.org/2000/svg"
   xmlns="http://www.w3.org/2000/svg"
   width="300.0"
   height="300.0"

>
    <g transform="scale(2.8125, -2.8125)   translate(43.55555555555556,-33.55555555555556)" stroke-width="0.25"  fill="none">
       <!-- hidden lines -->
       <g  stroke="rgb(160,160,160)" fill="none" stroke-dasharray="0.25,0.25" >
			<path d="M-40.0,-28.0 L-40.0,28.0 " />
			<path d="M-40.0,-28.0 L-39.996053456856544,-28.125581039058627 L-39.984229402628955,-28.250666467128607 L-39.96457450145738,-28.374762629171446 L-39.93716632225726,-28.497379774329705 L-39.90211303259031,-28.61803398874989 L-39.8595529717765,-28.736249105369353 L-39.809654104932044,-28.851558583130142 L-39.75261336008773,-28.963507348203425 L-39.688655851004036,-29.071653589957986 L-39.6180339887499,-29.17557050458494 L-39.54102648555158,-29.274847979497373 L-39.45793725484283,-29.36909421185737 L-39.36909421185739,-29.457937254842818 L-39.27484797949739,-29.541026485551573 L-39.175570504584954,-29.61803398874989 L-39.071653589958004,-29.688655851004025 L-38.96350734820344,-29.75261336008772 L-38.851558583130156,-29.809654104932033 L-38.73624910536937,-29.8595529717765 L-38.61803398874991,-29.902113032590304 L-38.49737977432972,-29.93716632225726 L-38.374762629171464,-29.964574501457374 L-38.250666467128625,-29.984229402628955 L-38.125581039058645,-29.996053456856544 L-38.00000000000002,-30.0 " />
			<path d="M-40.0,28.0 L-39.996053456856544,28.125581039058627 L-39.984229402628955,28.25066646712861 L-39.96457450145738,28.37476262917145 L-39.93716632225726,28.49737977432971 L-39.90211303259031,28.618033988749897 L-39.8595529717765,28.736249105369357 L-39.80965410493204,28.851558583130146 L-39.75261336008773,28.963507348203432 L-39.68865585100403,29.071653589957993 L-39.61803398874989,29.175570504584947 L-39.541026485551576,29.27484797949738 L-39.45793725484282,29.36909421185738 L-39.36909421185737,29.457937254842825 L-39.27484797949738,29.54102648555158 L-39.17557050458495,29.618033988749897 L-39.07165358995799,29.688655851004032 L-38.96350734820343,29.75261336008773 L-38.85155858313014,29.80965410493204 L-38.73624910536935,29.859552971776505 L-38.61803398874989,29.902113032590307 L-38.49737977432971,29.937166322257262 L-38.37476262917144,29.964574501457378 L-38.2506664671286,29.984229402628955 L-38.12558103905862,29.996053456856544 L-37.99999999999999,30.0 " />
			<path d="M-38.0,-30.0 L38.0,-30.0 " />
			<path d="M-38.0,30.0 L38.0,30.0 " />
			<path d="M38.0,-30.0 L38.12558103905862,-29.996053456856544 L38.25066646712861,-29.984229402628955 L38.37476262917145,-29.964574501457378 L38.49737977432971,-29.937166322257262 L38.61803398874989,-29.902113032590307 L38.73624910536935,-29.859552971776502 L38.85155858313014,-29.80965410493204 L38.96350734820343,-29.75261336008773 L39.07165358995799,-29.68865585100403 L39.17557050458495,-29.618033988749893 L39.27484797949738,-29.54102648555158 L39.36909421185738,-29.45793725484282 L39.457937254842825,-29.369094211857377 L39.541026485551576,-29.27484797949738 L39.61803398874989,-29.175570504584947 L39.68865585100403,-29.071653589957993 L39.75261336008773,-28.963507348203432 L39.80965410493204,-28.851558583130146 L39.8595529717765,-28.736249105369357 L39.90211303259031,-28.618033988749893 L39.93716632225726,-28.49737977432971 L39.96457450145738,-28.37476262917145 L39.984229402628955,-28.250666467128607 L39.996053456856544,-28.125581039058627 L40.0,-28.0 " />
			<path d="M38.0,30.0 L38.12558103905862,29.996053456856544 L38.25066646712861,29.984229402628955 L38.37476262917145,29.964574501457378 L38.49737977432971,29.937166322257262 L38.61803398874989,29.902113032590307 L38.73624910536935,29.859552971776502 L38.85155858313015,29.80965410493204 L38.96350734820343,29.752613360087725 L39.071653589958,29.68865585100403 L39.17557050458495,29.618033988749893 L39.27484797949738,29.541026485551576 L39.36909421185738,29.45793725484282 L39.457937254842825,29.369094211857377 L39.54102648555158,29.274847979497377 L39.61803398874989,29.175570504584947 L39.68865585100403,29.071653589957993 L39.75261336008773,28.963507348203432 L39.80965410493204,28.851558583130146 L39.8595529717765,28.736249105369357 L39.90211303259031,28.618033988749897 L39.93716632225726,28.497379774329712 L39.96457450145738,28.374762629171453 L39.984229402628955,28.250666467128614 L39.996053456856544,28.12558103905863 L40.0,28.000000000000007 " />
			<path d="M40.0,-28.0 L40.0,28.0 " />
			<path d="M-25.999999999999996,-20.1 L-26.003970814871195,-19.92181259416323 L-26.015875375799418,-19.743978962926942 L-26.03569004738088,-19.566852178504888 L-26.063375489419286,-19.3907839097319 L-26.09887673503216,-19.21612372385798 L-26.14212329978249,-19.04321839251486 L-26.193029321619058,-18.872411203233042 L-26.251493731347583,-18.704041277876186 L-26.317400453294283,-18.538442899346023 L-26.390618635763342,-18.37594484789461 L-26.47100291083087,-18.21686974836157 L-26.55839368295944,-18.061533429632334 L-26.652617445860265,-17.910244297589124 L-26.753487126973873,-17.763302722799626 L-26.860802458885352,-17.621000444159023 L-26.974350376936776,-17.483619989669435 L-27.093905442247344,-17.351434115506706 L-27.21923028930143,-17.224705264488286 L-27.35007609721582,-17.103685045017286 L-27.486183083750568,-16.988613731537306 L-27.627281021082574,-16.87971978748975 L-27.77308977231791,-16.777219411720825 L-27.923319847677693,-16.681316109238733 L-28.077672979253258,-16.59220028717332 L-28.23584271318947,-16.510048876740342 L-28.397515018120476,-16.435024981960918 L-28.562368908649944,-16.367277555833592 L-28.730077082637823,-16.306941104601943 L-28.900306571028473,-16.25413542070488 L-29.07271939892988,-16.208965344939855 L-29.246973256631538,-16.17152055831116 L-29.422722179228685,-16.141875403976588 L-29.599617233503597,-16.120088739645986 L-29.777307210700197,-16.106203820724716 L-29.955439323816528,-16.100248214434046 L-30.13365990803069,-16.102233745078983 L-30.311615122869604,-16.11215647057223 L-30.488951654726527,-16.129996690260803 L-30.66531741833251,-16.155718984039886 L-30.840362255789103,-16.18927228267615 L-31.01373863177445,-16.230589969200985 L-31.185102323542527,-16.279590011172353 L-31.35411310434549,-16.33617512354257 L-31.52043541892245,-16.4002329618088 L-31.683739049713328,-16.471636345062635 L-31.8436997724753,-16.55024350849604 L-31.99999999999999,-16.635898384862244 L-32.15232941265348,-16.72843091433281 L-32.30038557448723,-16.827657382135698 L-32.44387453369665,-16.933380783303914 L-32.582511406235206,-17.04539121381067 L-32.71602094142529,-17.163466287314375 L-32.84413806844304,-17.28737157668613 L-32.966608422591825,-17.41686107944311 L-33.083188850319885,-17.5516777061637 L-33.193647891979175,-17.691553790914785 L-33.297766241367036,-17.836211622677624 L-33.39533718113842,-17.985363996717417 L-33.48616699322402,-18.138714784801714 L-33.57007534343952,-18.295959523135597 L-33.64689563952251,-18.456786016846365 L-33.71647536188595,-18.62087495981757 L-33.77867636643167,-18.787900568641728 L-33.83337515882276,-18.957531229433155 L-33.880463139670084,-19.1294301562166 L-33.91984682014635,-19.303256059584662 L-33.951448007599474,-19.478663824296294 L-33.97520396079693,-19.655305194471175 L-33.991067514492606,-19.832829465019522 L-33.99900717306903,-20.010884177934596 L-33.99900717306903,-20.189115822065425 L-33.991067514492606,-20.3671705349805 L-33.97520396079693,-20.544694805528845 L-33.951448007599474,-20.721336175703726 L-33.91984682014634,-20.89674394041536 L-33.880463139670084,-21.07056984378342 L-33.833375158822754,-21.242468770566866 L-33.77867636643167,-21.412099431358293 L-33.71647536188594,-21.57912504018245 L-33.646895639522505,-21.743213983153655 L-33.57007534343951,-21.904040476864424 L-33.486166993224,-22.061285215198303 L-33.395337181138416,-22.2146360032826 L-33.29776624136703,-22.363788377322397 L-33.19364789197916,-22.508446209085236 L-33.08318885031988,-22.648322293836316 L-32.96660842259181,-22.783138920556908 L-32.84413806844302,-22.912628423313887 L-32.71602094142528,-23.036533712685642 L-32.58251140623519,-23.154608786189343 L-32.44387453369664,-23.266619216696096 L-32.30038557448722,-23.372342617864316 L-32.15232941265347,-23.4715690856672 L-31.999999999999982,-23.564101615137762 L-31.843699772475293,-23.649756491503965 L-31.683739049713324,-23.728363654937368 L-31.520435418922442,-23.799767038191206 L-31.354113104345487,-23.863824876457436 L-31.185102323542523,-23.920409988827654 L-31.01373863177445,-23.96941003079902 L-30.8403622557891,-24.010727717323856 L-30.66531741833251,-24.044281015960117 L-30.488951654726527,-24.0700033097392 L-30.311615122869604,-24.087843529427772 L-30.13365990803069,-24.09776625492102 L-29.95543932381653,-24.099751785565957 L-29.7773072107002,-24.093796179275287 L-29.599617233503604,-24.079911260354017 L-29.422722179228693,-24.058124596023415 L-29.246973256631545,-24.028479441688845 L-29.072719398929888,-23.991034655060147 L-28.90030657102848,-23.945864579295126 L-28.73007708263783,-23.893058895398063 L-28.56236890864995,-23.832722444166414 L-28.397515018120487,-23.764975018039088 L-28.235842713189477,-23.689951123259668 L-28.077672979253272,-23.60779971282669 L-27.923319847677707,-23.518683890761277 L-27.77308977231792,-23.422780588279185 L-27.627281021082588,-23.32028021251026 L-27.486183083750582,-23.211386268462707 L-27.350076097215833,-23.096314954982727 L-27.21923028930144,-22.975294735511728 L-27.093905442247358,-22.848565884493308 L-26.974350376936787,-22.71638001033058 L-26.860802458885367,-22.578999555840994 L-26.753487126973884,-22.436697277200395 L-26.65261744586028,-22.289755702410897 L-26.55839368295945,-22.13846657036769 L-26.471002910830883,-21.983130251638457 L-26.390618635763353,-21.824055152105416 L-26.317400453294294,-21.661557100654004 L-26.251493731347594,-21.49595872212384 L-26.193029321619065,-21.32758879676699 L-26.1421232997825,-21.156781607485172 L-26.098876735032167,-20.983876276142055 L-26.063375489419293,-20.809216090268134 L-26.035690047380882,-20.63314782149515 L-26.015875375799418,-20.456021037073096 L-26.003970814871195,-20.278187405836807 L-25.999999999999996,-20.100000000000037 " />
			<path d="M34.0,-20.1 L33.996029185128805,-19.92181259416323 L33.98412462420058,-19.743978962926942 L33.964309952619125,-19.566852178504888 L33.936624510580714,-19.3907839097319 L33.901123264967836,-19.21612372385798 L33.85787670021751,-19.04321839251486 L33.80697067838094,-18.872411203233042 L33.74850626865241,-18.704041277876186 L33.68259954670572,-18.538442899346023 L33.609381364236654,-18.37594484789461 L33.52899708916913,-18.21686974836157 L33.44160631704056,-18.061533429632334 L33.347382554139735,-17.910244297589124 L33.24651287302613,-17.763302722799626 L33.13919754111465,-17.621000444159023 L33.025649623063224,-17.483619989669435 L32.90609455775265,-17.351434115506706 L32.78076971069857,-17.224705264488286 L32.64992390278418,-17.103685045017286 L32.51381691624943,-16.988613731537306 L32.372718978917426,-16.87971978748975 L32.22691022768209,-16.777219411720825 L32.076680152322304,-16.681316109238733 L31.922327020746742,-16.59220028717332 L31.76415728681053,-16.510048876740342 L31.602484981879524,-16.435024981960918 L31.437631091350056,-16.367277555833592 L31.269922917362177,-16.306941104601943 L31.099693428971527,-16.25413542070488 L30.92728060107012,-16.208965344939855 L30.753026743368462,-16.17152055831116 L30.577277820771315,-16.141875403976588 L30.400382766496403,-16.120088739645986 L30.222692789299803,-16.106203820724716 L30.044560676183472,-16.100248214434046 L29.86634009196931,-16.102233745078983 L29.688384877130396,-16.11215647057223 L29.511048345273473,-16.129996690260803 L29.33468258166749,-16.155718984039886 L29.159637744210897,-16.18927228267615 L28.98626136822555,-16.230589969200985 L28.814897676457473,-16.279590011172353 L28.64588689565451,-16.33617512354257 L28.47956458107755,-16.4002329618088 L28.316260950286672,-16.471636345062635 L28.1563002275247,-16.55024350849604 L28.00000000000001,-16.635898384862244 L27.847670587346517,-16.72843091433281 L27.699614425512767,-16.827657382135698 L27.556125466303346,-16.933380783303914 L27.417488593764798,-17.04539121381067 L27.283979058574708,-17.163466287314375 L27.155861931556963,-17.28737157668613 L27.033391577408175,-17.41686107944311 L26.91681114968011,-17.5516777061637 L26.80635210802083,-17.691553790914785 L26.702233758632964,-17.836211622677624 L26.604662818861577,-17.985363996717417 L26.513833006775982,-18.138714784801714 L26.42992465656048,-18.295959523135597 L26.353104360477484,-18.456786016846365 L26.283524638114052,-18.62087495981757 L26.22132363356833,-18.787900568641728 L26.16662484117724,-18.957531229433155 L26.119536860329912,-19.1294301562166 L26.080153179853657,-19.303256059584662 L26.048551992400526,-19.478663824296294 L26.024796039203064,-19.655305194471175 L26.00893248550739,-19.832829465019522 L26.00099282693097,-20.010884177934596 L26.00099282693097,-20.189115822065425 L26.008932485507394,-20.3671705349805 L26.024796039203068,-20.544694805528845 L26.04855199240053,-20.721336175703726 L26.08015317985366,-20.89674394041536 L26.119536860329916,-21.07056984378342 L26.166624841177242,-21.242468770566866 L26.221323633568336,-21.412099431358293 L26.28352463811406,-21.57912504018245 L26.353104360477495,-21.743213983153655 L26.429924656560488,-21.904040476864424 L26.513833006775993,-22.061285215198303 L26.604662818861584,-22.2146360032826 L26.702233758632975,-22.363788377322397 L26.80635210802084,-22.508446209085236 L26.91681114968012,-22.648322293836316 L27.03339157740819,-22.783138920556908 L27.155861931556977,-22.912628423313887 L27.28397905857472,-23.036533712685642 L27.41748859376481,-23.154608786189343 L27.556125466303357,-23.266619216696096 L27.699614425512777,-23.372342617864316 L27.847670587346528,-23.4715690856672 L28.000000000000018,-23.564101615137762 L28.156300227524707,-23.649756491503965 L28.316260950286676,-23.728363654937368 L28.479564581077558,-23.799767038191206 L28.645886895654513,-23.863824876457436 L28.814897676457477,-23.920409988827654 L28.98626136822555,-23.96941003079902 L29.1596377442109,-24.010727717323856 L29.33468258166749,-24.044281015960117 L29.511048345273473,-24.0700033097392 L29.688384877130396,-24.087843529427772 L29.86634009196931,-24.09776625492102 L30.04456067618347,-24.099751785565957 L30.2226927892998,-24.093796179275287 L30.400382766496396,-24.079911260354017 L30.577277820771307,-24.058124596023415 L30.753026743368455,-24.028479441688845 L30.927280601070112,-23.991034655060147 L31.09969342897152,-23.945864579295126 L31.26992291736217,-23.893058895398063 L31.43763109135005,-23.832722444166414 L31.602484981879513,-23.764975018039088 L31.764157286810523,-23.689951123259668 L31.922327020746728,-23.60779971282669 L32.0766801523223,-23.518683890761277 L32.226910227682076,-23.422780588279185 L32.37271897891741,-23.32028021251026 L32.51381691624942,-23.211386268462707 L32.64992390278417,-23.096314954982727 L32.78076971069856,-22.975294735511728 L32.906094557752645,-22.848565884493308 L33.02564962306321,-22.71638001033058 L33.13919754111463,-22.578999555840994 L33.24651287302611,-22.436697277200395 L33.34738255413972,-22.289755702410897 L33.441606317040545,-22.13846657036769 L33.52899708916912,-21.983130251638457 L33.60938136423665,-21.824055152105416 L33.68259954670571,-21.661557100654004 L33.748506268652406,-21.49595872212384 L33.806970678380935,-21.32758879676699 L33.8578767002175,-21.156781607485172 L33.90112326496783,-20.983876276142055 L33.93662451058071,-20.809216090268134 L33.96430995261912,-20.63314782149515 L33.98412462420058,-20.456021037073096 L33.996029185128805,-20.278187405836807 L34.0,-20.100000000000037 " />
			<path d="M-25.999999999999996,20.1 L-26.003970814871195,20.27818740583677 L-26.015875375799418,20.45602103707306 L-26.03569004738088,20.633147821495115 L-26.063375489419286,20.8092160902681 L-26.09887673503216,20.983876276142023 L-26.14212329978249,21.156781607485144 L-26.193029321619058,21.32758879676696 L-26.251493731347583,21.495958722123817 L-26.317400453294283,21.66155710065398 L-26.390618635763342,21.824055152105394 L-26.47100291083087,21.983130251638432 L-26.55839368295944,22.13846657036767 L-26.652617445860265,22.28975570241088 L-26.753487126973873,22.436697277200377 L-26.860802458885352,22.57899955584098 L-26.974350376936776,22.716380010330568 L-27.093905442247344,22.848565884493297 L-27.21923028930143,22.975294735511717 L-27.35007609721582,23.096314954982716 L-27.486183083750568,23.211386268462697 L-27.627281021082574,23.32028021251025 L-27.77308977231791,23.422780588279178 L-27.923319847677693,23.51868389076127 L-28.077672979253258,23.607799712826683 L-28.23584271318947,23.68995112325966 L-28.397515018120476,23.764975018039085 L-28.562368908649944,23.83272244416641 L-28.730077082637823,23.89305889539806 L-28.900306571028473,23.945864579295122 L-29.07271939892988,23.991034655060147 L-29.246973256631538,24.028479441688845 L-29.422722179228685,24.058124596023415 L-29.599617233503597,24.079911260354017 L-29.777307210700197,24.093796179275287 L-29.955439323816528,24.099751785565957 L-30.13365990803069,24.09776625492102 L-30.311615122869604,24.087843529427772 L-30.488951654726527,24.0700033097392 L-30.66531741833251,24.044281015960117 L-30.840362255789103,24.010727717323853 L-31.01373863177445,23.96941003079902 L-31.185102323542527,23.92040998882765 L-31.35411310434549,23.863824876457432 L-31.52043541892245,23.799767038191202 L-31.683739049713328,23.728363654937368 L-31.8436997724753,23.64975649150396 L-31.99999999999999,23.56410161513776 L-32.15232941265348,23.47156908566719 L-32.30038557448723,23.372342617864305 L-32.44387453369665,23.26661921669609 L-32.582511406235206,23.154608786189332 L-32.71602094142529,23.036533712685628 L-32.84413806844304,22.912628423313873 L-32.966608422591825,22.783138920556894 L-33.083188850319885,22.6483222938363 L-33.193647891979175,22.508446209085218 L-33.297766241367036,22.36378837732238 L-33.39533718113842,22.214636003282585 L-33.48616699322402,22.06128521519829 L-33.57007534343952,21.904040476864406 L-33.64689563952251,21.743213983153638 L-33.71647536188595,21.579125040182433 L-33.77867636643167,21.412099431358275 L-33.83337515882276,21.24246877056685 L-33.880463139670084,21.070569843783403 L-33.91984682014635,20.89674394041534 L-33.951448007599474,20.72133617570371 L-33.97520396079693,20.544694805528827 L-33.991067514492606,20.36717053498048 L-33.99900717306903,20.189115822065407 L-33.99900717306903,20.010884177934578 L-33.991067514492606,19.832829465019504 L-33.97520396079693,19.655305194471158 L-33.951448007599474,19.478663824296277 L-33.91984682014634,19.303256059584644 L-33.880463139670084,19.129430156216582 L-33.833375158822754,18.957531229433137 L-33.77867636643167,18.78790056864171 L-33.71647536188594,18.620874959817552 L-33.646895639522505,18.456786016846348 L-33.57007534343951,18.29595952313558 L-33.486166993224,18.1387147848017 L-33.395337181138416,17.985363996717403 L-33.29776624136703,17.836211622677606 L-33.19364789197916,17.691553790914767 L-33.08318885031988,17.551677706163687 L-32.96660842259181,17.416861079443095 L-32.84413806844302,17.287371576686116 L-32.71602094142528,17.16346628731436 L-32.58251140623519,17.04539121381066 L-32.44387453369664,16.933380783303907 L-32.30038557448722,16.827657382135687 L-32.15232941265347,16.728430914332804 L-31.999999999999982,16.63589838486224 L-31.843699772475293,16.550243508496038 L-31.683739049713324,16.471636345062635 L-31.520435418922442,16.400232961808797 L-31.354113104345487,16.336175123542567 L-31.185102323542523,16.27959001117235 L-31.01373863177445,16.230589969200985 L-30.8403622557891,16.189272282676146 L-30.66531741833251,16.155718984039886 L-30.488951654726527,16.129996690260803 L-30.311615122869604,16.11215647057223 L-30.13365990803069,16.102233745078983 L-29.95543932381653,16.100248214434046 L-29.7773072107002,16.106203820724716 L-29.599617233503604,16.120088739645986 L-29.422722179228693,16.141875403976588 L-29.246973256631545,16.17152055831116 L-29.072719398929888,16.208965344939855 L-28.90030657102848,16.254135420704877 L-28.73007708263783,16.30694110460194 L-28.56236890864995,16.36727755583359 L-28.397515018120487,16.435024981960915 L-28.235842713189477,16.510048876740335 L-28.077672979253272,16.592200287173313 L-27.923319847677707,16.681316109238725 L-27.77308977231792,16.777219411720818 L-27.627281021082588,16.879719787489744 L-27.486183083750582,16.988613731537296 L-27.350076097215833,17.103685045017276 L-27.21923028930144,17.224705264488275 L-27.093905442247358,17.351434115506695 L-26.974350376936787,17.48361998966942 L-26.860802458885367,17.62100044415901 L-26.753487126973884,17.763302722799608 L-26.65261744586028,17.910244297589106 L-26.55839368295945,18.061533429632313 L-26.471002910830883,18.216869748361546 L-26.390618635763353,18.375944847894587 L-26.317400453294294,18.538442899346 L-26.251493731347594,18.70404127787616 L-26.193029321619065,18.872411203233014 L-26.1421232997825,19.04321839251483 L-26.098876735032167,19.216123723857947 L-26.063375489419293,19.39078390973187 L-26.035690047380882,19.566852178504853 L-26.015875375799418,19.743978962926906 L-26.003970814871195,19.921812594163196 L-25.999999999999996,20.099999999999966 " />
			<path d="M34.0,20.1 L33.996029185128805,20.27818740583677 L33.98412462420058,20.45602103707306 L33.964309952619125,20.633147821495115 L33.936624510580714,20.8092160902681 L33.901123264967836,20.983876276142023 L33.85787670021751,21.156781607485144 L33.80697067838094,21.32758879676696 L33.74850626865241,21.495958722123817 L33.68259954670572,21.66155710065398 L33.609381364236654,21.824055152105394 L33.52899708916913,21.983130251638432 L33.44160631704056,22.13846657036767 L33.347382554139735,22.28975570241088 L33.24651287302613,22.436697277200377 L33.13919754111465,22.57899955584098 L33.025649623063224,22.716380010330568 L32.90609455775265,22.848565884493297 L32.78076971069857,22.975294735511717 L32.64992390278418,23.096314954982716 L32.51381691624943,23.211386268462697 L32.372718978917426,23.32028021251025 L32.22691022768209,23.422780588279178 L32.076680152322304,23.51868389076127 L31.922327020746742,23.607799712826683 L31.76415728681053,23.68995112325966 L31.602484981879524,23.764975018039085 L31.437631091350056,23.83272244416641 L31.269922917362177,23.89305889539806 L31.099693428971527,23.945864579295122 L30.92728060107012,23.991034655060147 L30.753026743368462,24.028479441688845 L30.577277820771315,24.058124596023415 L30.400382766496403,24.079911260354017 L30.222692789299803,24.093796179275287 L30.044560676183472,24.099751785565957 L29.86634009196931,24.09776625492102 L29.688384877130396,24.087843529427772 L29.511048345273473,24.0700033097392 L29.33468258166749,24.044281015960117 L29.159637744210897,24.010727717323853 L28.98626136822555,23.96941003079902 L28.814897676457473,23.92040998882765 L28.64588689565451,23.863824876457432 L28.47956458107755,23.799767038191202 L28.316260950286672,23.728363654937368 L28.1563002275247,23.64975649150396 L28.00000000000001,23.56410161513776 L27.847670587346517,23.47156908566719 L27.699614425512767,23.372342617864305 L27.556125466303346,23.26661921669609 L27.417488593764798,23.154608786189332 L27.283979058574708,23.036533712685628 L27.155861931556963,22.912628423313873 L27.033391577408175,22.783138920556894 L26.91681114968011,22.6483222938363 L26.80635210802083,22.508446209085218 L26.702233758632964,22.36378837732238 L26.604662818861577,22.214636003282585 L26.513833006775982,22.06128521519829 L26.42992465656048,21.904040476864406 L26.353104360477484,21.743213983153638 L26.283524638114052,21.579125040182433 L26.22132363356833,21.412099431358275 L26.16662484117724,21.24246877056685 L26.119536860329912,21.070569843783403 L26.080153179853657,20.89674394041534 L26.048551992400526,20.72133617570371 L26.024796039203064,20.544694805528827 L26.00893248550739,20.36717053498048 L26.00099282693097,20.189115822065407 L26.00099282693097,20.010884177934578 L26.008932485507394,19.832829465019504 L26.024796039203068,19.655305194471158 L26.04855199240053,19.478663824296277 L26.08015317985366,19.303256059584644 L26.119536860329916,19.129430156216582 L26.166624841177242,18.957531229433137 L26.221323633568336,18.78790056864171 L26.28352463811406,18.620874959817552 L26.353104360477495,18.456786016846348 L26.429924656560488,18.29595952313558 L26.513833006775993,18.1387147848017 L26.604662818861584,17.985363996717403 L26.702233758632975,17.836211622677606 L26.80635210802084,17.691553790914767 L26.91681114968012,17.551677706163687 L27.03339157740819,17.416861079443095 L27.155861931556977,17.287371576686116 L27.28397905857472,17.16346628731436 L27.41748859376481,17.04539121381066 L27.556125466303357,16.933380783303907 L27.699614425512777,16.827657382135687 L27.847670587346528,16.728430914332804 L28.000000000000018,16.63589838486224 L28.156300227524707,16.550243508496038 L28.316260950286676,16.471636345062635 L28.479564581077558,16.400232961808797 L28.645886895654513,16.336175123542567 L28.814897676457477,16.27959001117235 L28.98626136822555,16.230589969200985 L29.1596377442109,16.189272282676146 L29.33468258166749,16.155718984039886 L29.511048345273473,16.129996690260803 L29.688384877130396,16.11215647057223 L29.86634009196931,16.102233745078983 L30.04456067618347,16.100248214434046 L30.2226927892998,16.106203820724716 L30.400382766496396,16.120088739645986 L30.577277820771307,16.141875403976588 L30.753026743368455,16.17152055831116 L30.927280601070112,16.208965344939855 L31.09969342897152,16.254135420704877 L31.26992291736217,16.30694110460194 L31.43763109135005,16.36727755583359 L31.602484981879513,16.435024981960915 L31.764157286810523,16.510048876740335 L31.922327020746728,16.592200287173313 L32.0766801523223,16.681316109238725 L32.226910227682076,16.777219411720818 L32.37271897891741,16.879719787489744 L32.51381691624942,16.988613731537296 L32.64992390278417,17.103685045017276 L32.78076971069856,17.224705264488275 L32.906094557752645,17.351434115506695 L33.02564962306321,17.48361998966942 L33.13919754111463,17.62100044415901 L33.24651287302611,17.763302722799608 L33.34738255413972,17.910244297589106 L33.441606317040545,18.061533429632313 L33.52899708916912,18.216869748361546 L33.60938136423665,18.375944847894587 L33.68259954670571,18.538442899346 L33.748506268652406,18.70404127787616 L33.806970678380935,18.872411203233014 L33.8578767002175,19.04321839251483 L33.90112326496783,19.216123723857947 L33.93662451058071,19.39078390973187 L33.96430995261912,19.566852178504853 L33.98412462420058,19.743978962926906 L33.996029185128805,19.921812594163196 L34.0,20.099999999999966 " />

       </g>

       <!-- solid lines -->
       <g  stroke="rgb(0,0,0)" fill="none">
			<path d="M-40.0,-28.0 L-40.0,28.0 " />
			<path d="M-40.0,-28.0 L-39.996053456856544,-28.125581039058627 L-39.984229402628955,-28.250666467128607 L-39.96457450145738,-28.374762629171446 L-39.93716632225726,-28.497379774329705 L-39.90211303259031,-28.61803398874989 L-39.8595529717765,-28.736249105369353 L-39.809654104932044,-28.851558583130142 L-39.75261336008773,-28.963507348203425 L-39.688655851004036,-29.071653589957986 L-39.6180339887499,-29.17557050458494 L-39.54102648555158,-29.274847979497373 L-39.45793725484283,-29.36909421185737 L-39.36909421185739,-29.457937254842818 L-39.27484797949739,-29.541026485551573 L-39.175570504584954,-29.61803398874989 L-39.071653589958004,-29.688655851004025 L-38.96350734820344,-29.75261336008772 L-38.851558583130156,-29.809654104932033 L-38.73624910536937,-29.8595529717765 L-38.61803398874991,-29.902113032590304 L-38.49737977432972,-29.93716632225726 L-38.374762629171464,-29.964574501457374 L-38.250666467128625,-29.984229402628955 L-38.125581039058645,-29.996053456856544 L-38.00000000000002,-30.0 " />
			<path d="M-40.0,28.0 L-39.996053456856544,28.125581039058627 L-39.984229402628955,28.25066646712861 L-39.96457450145738,28.37476262917145 L-39.93716632225726,28.49737977432971 L-39.90211303259031,28.618033988749897 L-39.8595529717765,28.736249105369357 L-39.80965410493204,28.851558583130146 L-39.75261336008773,28.963507348203432 L-39.68865585100403,29.071653589957993 L-39.61803398874989,29.175570504584947 L-39.541026485551576,29.27484797949738 L-39.45793725484282,29.36909421185738 L-39.36909421185737,29.457937254842825 L-39.27484797949738,29.54102648555158 L-39.17557050458495,29.618033988749897 L-39.07165358995799,29.688655851004032 L-38.96350734820343,29.75261336008773 L-38.85155858313014,29.80965410493204 L-38.73624910536935,29.859552971776505 L-38.61803398874989,29.902113032590307 L-38.49737977432971,29.937166322257262 L-38.37476262917144,29.964574501457378 L-38.2506664671286,29.984229402628955 L-38.12558103905862,29.996053456856544 L-37.99999999999999,30.0 " />
			<path d="M-38.0,-30.0 L38.0,-30.0 " />
			<path d="M-38.0,30.0 L38.0,30.0 " />
			<path d="M38.0,-30.0 L38.12558103905862,-29.996053456856544 L38.25066646712861,-29.984229402628955 L38.37476262917145,-29.964574501457378 L38.49737977432971,-29.937166322257262 L38.61803398874989,-29.902113032590307 L38.73624910536935,-29.859552971776502 L38.85155858313014,-29.80965410493204 L38.96350734820343,-29.75261336008773 L39.07165358995799,-29.68865585100403 L39.17557050458495,-29.618033988749893 L39.27484797949738,-29.54102648555158 L39.36909421185738,-29.45793725484282 L39.457937254842825,-29.369094211857377 L39.541026485551576,-29.27484797949738 L39.61803398874989,-29.175570504584947 L39.68865585100403,-29.071653589957993 L39.75261336008773,-28.963507348203432 L39.80965410493204,-28.851558583130146 L39.8595529717765,-28.736249105369357 L39.90211303259031,-28.618033988749893 L39.93716632225726,-28.49737977432971 L39.96457450145738,-28.37476262917145 L39.984229402628955,-28.250666467128607 L39.996053456856544,-28.125581039058627 L40.0,-28.0 " />
			<path d="M38.0,30.0 L38.12558103905862,29.996053456856544 L38.25066646712861,29.984229402628955 L38.37476262917145,29.964574501457378 L38.49737977432971,29.937166322257262 L38.61803398874989,29.902113032590307 L38.73624910536935,29.859552971776502 L38.85155858313015,29.80965410493204 L38.96350734820343,29.752613360087725 L39.071653589958,29.68865585100403 L39.17557050458495,29.618033988749893 L39.27484797949738,29.541026485551576 L39.36909421185738,29.45793725484282 L39.457937254842825,29.369094211857377 L39.54102648555158,29.274847979497377 L39.61803398874989,29.175570504584947 L39.68865585100403,29.071653589957993 L39.75261336008773,28.963507348203432 L39.80965410493204,28.851558583130146 L39.8595529717765,28.736249105369357 L39.90211303259031,28.618033988749897 L39.93716632225726,28.497379774329712 L39.96457450145738,28.374762629171453 L39.984229402628955,28.250666467128614 L39.996053456856544,28.12558103905863 L40.0,28.000000000000007 " />
			<path d="M40.0,-28.0 L40.0,28.0 " />
			<path d="M-26.0,-20.1 L-26.0039708148712,-20.27818740583677 L-26.015875375799418,-20.45602103707306 L-26.03569004738088,-20.63314782149512 L-26.06337548941929,-20.8092160902681 L-26.098876735032164,-20.983876276142023 L-26.142123299782494,-21.156781607485144 L-26.193029321619058,-21.32758879676696 L-26.251493731347587,-21.495958722123817 L-26.317400453294283,-21.66155710065398 L-26.390618635763346,-21.824055152105394 L-26.471002910830872,-21.983130251638435 L-26.55839368295944,-22.138466570367672 L-26.65261744586027,-22.28975570241088 L-26.753487126973877,-22.43669727720038 L-26.860802458885356,-22.57899955584098 L-26.974350376936776,-22.716380010330568 L-27.093905442247348,-22.848565884493297 L-27.21923028930143,-22.975294735511717 L-27.350076097215823,-23.096314954982716 L-27.48618308375057,-23.211386268462697 L-27.627281021082577,-23.32028021251025 L-27.77308977231791,-23.422780588279178 L-27.923319847677696,-23.51868389076127 L-28.07767297925326,-23.607799712826687 L-28.23584271318947,-23.689951123259664 L-28.39751501812048,-23.764975018039088 L-28.562368908649944,-23.83272244416641 L-28.730077082637827,-23.89305889539806 L-28.900306571028477,-23.945864579295126 L-29.072719398929884,-23.991034655060147 L-29.24697325663154,-24.028479441688845 L-29.42272217922869,-24.05812459602342 L-29.5996172335036,-24.079911260354017 L-29.7773072107002,-24.093796179275287 L-29.95543932381653,-24.09975178556596 L-30.133659908030694,-24.09776625492102 L-30.311615122869608,-24.087843529427776 L-30.48895165472653,-24.0700033097392 L-30.665317418332513,-24.044281015960117 L-30.840362255789106,-24.010727717323856 L-31.01373863177446,-23.96941003079902 L-31.18510232354253,-23.920409988827654 L-31.354113104345494,-23.863824876457436 L-31.520435418922453,-23.799767038191206 L-31.68373904971333,-23.728363654937368 L-31.843699772475304,-23.64975649150396 L-31.999999999999993,-23.56410161513776 L-32.152329412653486,-23.47156908566719 L-32.30038557448724,-23.37234261786431 L-32.44387453369666,-23.26661921669609 L-32.582511406235206,-23.154608786189332 L-32.7160209414253,-23.036533712685628 L-32.844138068443044,-22.912628423313876 L-32.96660842259183,-22.783138920556897 L-33.08318885031989,-22.6483222938363 L-33.193647891979175,-22.50844620908522 L-33.29776624136704,-22.363788377322383 L-33.39533718113843,-22.214636003282585 L-33.48616699322402,-22.06128521519829 L-33.57007534343953,-21.904040476864406 L-33.64689563952252,-21.743213983153638 L-33.716475361885955,-21.579125040182433 L-33.778676366431675,-21.412099431358275 L-33.83337515882277,-21.24246877056685 L-33.88046313967009,-21.070569843783403 L-33.91984682014635,-20.89674394041534 L-33.95144800759948,-20.72133617570371 L-33.97520396079694,-20.544694805528827 L-33.99106751449261,-20.36717053498048 L-33.99900717306904,-20.189115822065407 L-33.99900717306904,-20.010884177934578 L-33.99106751449261,-19.832829465019504 L-33.97520396079694,-19.655305194471158 L-33.951448007599474,-19.478663824296277 L-33.91984682014635,-19.303256059584644 L-33.880463139670084,-19.129430156216582 L-33.83337515882276,-18.957531229433137 L-33.77867636643167,-18.78790056864171 L-33.71647536188595,-18.620874959817552 L-33.64689563952251,-18.456786016846348 L-33.57007534343952,-18.29595952313558 L-33.48616699322401,-18.1387147848017 L-33.39533718113842,-17.9853639967174 L-33.29776624136703,-17.836211622677606 L-33.19364789197917,-17.691553790914767 L-33.08318885031988,-17.551677706163687 L-32.96660842259182,-17.41686107944309 L-32.84413806844303,-17.287371576686116 L-32.716020941425285,-17.16346628731436 L-32.58251140623519,-17.04539121381066 L-32.44387453369664,-16.933380783303903 L-32.30038557448723,-16.827657382135687 L-32.15232941265348,-16.728430914332804 L-31.999999999999986,-16.635898384862237 L-31.843699772475297,-16.550243508496038 L-31.683739049713328,-16.471636345062635 L-31.520435418922446,-16.400232961808797 L-31.35411310434549,-16.336175123542567 L-31.185102323542527,-16.27959001117235 L-31.013738631774455,-16.230589969200985 L-30.840362255789103,-16.189272282676146 L-30.665317418332513,-16.155718984039886 L-30.48895165472653,-16.129996690260803 L-30.311615122869608,-16.112156470572227 L-30.133659908030694,-16.102233745078983 L-29.955439323816535,-16.100248214434043 L-29.777307210700204,-16.106203820724716 L-29.599617233503608,-16.120088739645986 L-29.422722179228693,-16.141875403976584 L-29.24697325663155,-16.171520558311155 L-29.07271939892989,-16.208965344939852 L-28.900306571028484,-16.254135420704877 L-28.730077082637834,-16.30694110460194 L-28.562368908649955,-16.36727755583359 L-28.39751501812049,-16.43502498196091 L-28.23584271318948,-16.510048876740335 L-28.077672979253272,-16.59220028717331 L-27.923319847677707,-16.681316109238725 L-27.773089772317924,-16.777219411720818 L-27.627281021082588,-16.87971978748974 L-27.486183083750586,-16.988613731537296 L-27.350076097215833,-17.103685045017276 L-27.219230289301443,-17.22470526448827 L-27.093905442247358,-17.35143411550669 L-26.97435037693679,-17.483619989669418 L-26.860802458885367,-17.621000444159005 L-26.753487126973887,-17.763302722799608 L-26.65261744586028,-17.910244297589102 L-26.558393682959455,-18.061533429632313 L-26.471002910830883,-18.216869748361546 L-26.390618635763357,-18.375944847894587 L-26.317400453294294,-18.538442899346 L-26.251493731347594,-18.704041277876158 L-26.19302932161907,-18.872411203233014 L-26.1421232997825,-19.043218392514827 L-26.09887673503217,-19.216123723857947 L-26.063375489419293,-19.39078390973187 L-26.035690047380882,-19.566852178504853 L-26.01587537579942,-19.743978962926906 L-26.0039708148712,-19.921812594163196 L-26.0,-20.099999999999966 " />
			<path d="M34.0,-20.1 L33.996029185128805,-20.27818740583677 L33.98412462420058,-20.45602103707306 L33.96430995261912,-20.63314782149512 L33.936624510580714,-20.8092160902681 L33.901123264967836,-20.983876276142023 L33.8578767002175,-21.156781607485144 L33.80697067838094,-21.32758879676696 L33.74850626865241,-21.495958722123817 L33.68259954670572,-21.66155710065398 L33.609381364236654,-21.824055152105394 L33.528997089169124,-21.983130251638435 L33.44160631704056,-22.138466570367672 L33.347382554139735,-22.28975570241088 L33.24651287302613,-22.43669727720038 L33.13919754111465,-22.57899955584098 L33.025649623063224,-22.716380010330568 L32.90609455775265,-22.848565884493297 L32.78076971069857,-22.975294735511717 L32.64992390278418,-23.096314954982716 L32.513816916249425,-23.211386268462697 L32.37271897891742,-23.32028021251025 L32.22691022768209,-23.422780588279178 L32.076680152322304,-23.51868389076127 L31.92232702074674,-23.607799712826687 L31.76415728681053,-23.689951123259664 L31.60248498187952,-23.764975018039088 L31.437631091350056,-23.83272244416641 L31.269922917362173,-23.89305889539806 L31.099693428971523,-23.945864579295126 L30.927280601070116,-23.991034655060147 L30.75302674336846,-24.028479441688845 L30.57727782077131,-24.05812459602342 L30.4003827664964,-24.079911260354017 L30.2226927892998,-24.093796179275287 L30.04456067618347,-24.09975178556596 L29.866340091969306,-24.09776625492102 L29.688384877130392,-24.087843529427776 L29.51104834527347,-24.0700033097392 L29.334682581667487,-24.044281015960117 L29.159637744210894,-24.010727717323856 L28.98626136822554,-23.96941003079902 L28.81489767645747,-23.920409988827654 L28.645886895654506,-23.863824876457436 L28.479564581077547,-23.799767038191206 L28.31626095028667,-23.728363654937368 L28.156300227524696,-23.64975649150396 L28.000000000000007,-23.56410161513776 L27.847670587346514,-23.47156908566719 L27.699614425512763,-23.37234261786431 L27.556125466303342,-23.26661921669609 L27.417488593764794,-23.154608786189332 L27.2839790585747,-23.036533712685628 L27.15586193155696,-22.912628423313876 L27.03339157740817,-22.783138920556897 L26.916811149680107,-22.6483222938363 L26.806352108020825,-22.50844620908522 L26.702233758632957,-22.363788377322383 L26.60466281886157,-22.214636003282585 L26.51383300677598,-22.06128521519829 L26.429924656560473,-21.904040476864406 L26.35310436047748,-21.743213983153638 L26.28352463811405,-21.579125040182433 L26.221323633568325,-21.412099431358275 L26.16662484117723,-21.24246877056685 L26.11953686032991,-21.070569843783403 L26.080153179853653,-20.89674394041534 L26.048551992400522,-20.72133617570371 L26.02479603920306,-20.544694805528827 L26.008932485507387,-20.36717053498048 L26.000992826930965,-20.189115822065407 L26.000992826930965,-20.010884177934578 L26.008932485507387,-19.832829465019504 L26.02479603920306,-19.655305194471158 L26.048551992400522,-19.478663824296277 L26.080153179853657,-19.303256059584644 L26.119536860329912,-19.129430156216582 L26.16662484117724,-18.957531229433137 L26.22132363356833,-18.78790056864171 L26.283524638114056,-18.620874959817552 L26.353104360477488,-18.456786016846348 L26.429924656560484,-18.29595952313558 L26.51383300677599,-18.1387147848017 L26.60466281886158,-17.9853639967174 L26.702233758632968,-17.836211622677606 L26.806352108020835,-17.691553790914767 L26.916811149680118,-17.551677706163687 L27.03339157740818,-17.41686107944309 L27.15586193155697,-17.287371576686116 L27.283979058574715,-17.16346628731436 L27.417488593764805,-17.04539121381066 L27.556125466303353,-16.933380783303903 L27.699614425512774,-16.827657382135687 L27.847670587346524,-16.728430914332804 L28.000000000000014,-16.635898384862237 L28.156300227524703,-16.550243508496038 L28.316260950286672,-16.471636345062635 L28.479564581077554,-16.400232961808797 L28.64588689565451,-16.336175123542567 L28.814897676457473,-16.27959001117235 L28.986261368225545,-16.230589969200985 L29.159637744210897,-16.189272282676146 L29.334682581667487,-16.155718984039886 L29.51104834527347,-16.129996690260803 L29.688384877130392,-16.112156470572227 L29.866340091969306,-16.102233745078983 L30.044560676183465,-16.100248214434043 L30.222692789299796,-16.106203820724716 L30.400382766496392,-16.120088739645986 L30.577277820771307,-16.141875403976584 L30.75302674336845,-16.171520558311155 L30.92728060107011,-16.208965344939852 L31.099693428971516,-16.254135420704877 L31.269922917362166,-16.30694110460194 L31.437631091350045,-16.36727755583359 L31.60248498187951,-16.43502498196091 L31.76415728681052,-16.510048876740335 L31.922327020746728,-16.59220028717331 L32.07668015232229,-16.681316109238725 L32.226910227682076,-16.777219411720818 L32.37271897891741,-16.87971978748974 L32.51381691624942,-16.988613731537296 L32.64992390278417,-17.103685045017276 L32.78076971069856,-17.22470526448827 L32.90609455775264,-17.35143411550669 L33.02564962306321,-17.483619989669418 L33.13919754111463,-17.621000444159005 L33.24651287302611,-17.763302722799608 L33.34738255413972,-17.910244297589102 L33.441606317040545,-18.061533429632313 L33.52899708916912,-18.216869748361546 L33.60938136423664,-18.375944847894587 L33.6825995467057,-18.538442899346 L33.748506268652406,-18.704041277876158 L33.806970678380935,-18.872411203233014 L33.857876700217496,-19.043218392514827 L33.90112326496783,-19.216123723857947 L33.93662451058071,-19.39078390973187 L33.96430995261912,-19.566852178504853 L33.984124624200575,-19.743978962926906 L33.996029185128805,-19.921812594163196 L34.0,-20.099999999999966 " />
			<path d="M-26.0,20.1 L-26.0039708148712,19.92181259416323 L-26.015875375799418,19.743978962926942 L-26.03569004738088,19.566852178504885 L-26.06337548941929,19.3907839097319 L-26.098876735032164,19.21612372385798 L-26.142123299782494,19.04321839251486 L-26.193029321619058,18.872411203233042 L-26.251493731347587,18.704041277876186 L-26.317400453294283,18.538442899346023 L-26.390618635763346,18.37594484789461 L-26.471002910830872,18.216869748361567 L-26.55839368295944,18.06153342963233 L-26.65261744586027,17.910244297589124 L-26.753487126973877,17.763302722799622 L-26.860802458885356,17.621000444159023 L-26.974350376936776,17.483619989669435 L-27.093905442247348,17.351434115506706 L-27.21923028930143,17.224705264488286 L-27.350076097215823,17.103685045017286 L-27.48618308375057,16.988613731537306 L-27.627281021082577,16.87971978748975 L-27.77308977231791,16.777219411720825 L-27.923319847677696,16.681316109238733 L-28.07767297925326,16.592200287173316 L-28.23584271318947,16.51004887674034 L-28.39751501812048,16.435024981960915 L-28.562368908649944,16.367277555833592 L-28.730077082637827,16.306941104601943 L-28.900306571028477,16.254135420704877 L-29.072719398929884,16.208965344939855 L-29.24697325663154,16.17152055831116 L-29.42272217922869,16.141875403976584 L-29.5996172335036,16.120088739645986 L-29.7773072107002,16.106203820724716 L-29.95543932381653,16.100248214434043 L-30.133659908030694,16.102233745078983 L-30.311615122869608,16.112156470572227 L-30.48895165472653,16.129996690260803 L-30.665317418332513,16.155718984039886 L-30.840362255789106,16.189272282676146 L-31.01373863177446,16.230589969200985 L-31.18510232354253,16.27959001117235 L-31.354113104345494,16.336175123542567 L-31.520435418922453,16.400232961808797 L-31.68373904971333,16.471636345062635 L-31.843699772475304,16.55024350849604 L-31.999999999999993,16.635898384862244 L-32.152329412653486,16.72843091433281 L-32.30038557448724,16.827657382135694 L-32.44387453369666,16.933380783303914 L-32.582511406235206,17.04539121381067 L-32.7160209414253,17.163466287314375 L-32.844138068443044,17.287371576686127 L-32.96660842259183,17.416861079443105 L-33.08318885031989,17.5516777061637 L-33.193647891979175,17.69155379091478 L-33.29776624136704,17.83621162267762 L-33.39533718113843,17.985363996717417 L-33.48616699322402,18.138714784801714 L-33.57007534343953,18.295959523135597 L-33.64689563952252,18.456786016846365 L-33.716475361885955,18.62087495981757 L-33.778676366431675,18.787900568641728 L-33.83337515882277,18.957531229433155 L-33.88046313967009,19.1294301562166 L-33.91984682014635,19.303256059584662 L-33.95144800759948,19.478663824296294 L-33.97520396079694,19.655305194471175 L-33.99106751449261,19.832829465019522 L-33.99900717306904,20.010884177934596 L-33.99900717306904,20.189115822065425 L-33.99106751449261,20.3671705349805 L-33.97520396079694,20.544694805528845 L-33.951448007599474,20.721336175703726 L-33.91984682014635,20.89674394041536 L-33.880463139670084,21.07056984378342 L-33.83337515882276,21.242468770566866 L-33.77867636643167,21.412099431358293 L-33.71647536188595,21.57912504018245 L-33.64689563952251,21.743213983153655 L-33.57007534343952,21.904040476864424 L-33.48616699322401,22.061285215198303 L-33.39533718113842,22.214636003282603 L-33.29776624136703,22.363788377322397 L-33.19364789197917,22.508446209085236 L-33.08318885031988,22.648322293836316 L-32.96660842259182,22.78313892055691 L-32.84413806844303,22.912628423313887 L-32.716020941425285,23.036533712685642 L-32.58251140623519,23.154608786189343 L-32.44387453369664,23.2666192166961 L-32.30038557448723,23.372342617864316 L-32.15232941265348,23.4715690856672 L-31.999999999999986,23.564101615137766 L-31.843699772475297,23.649756491503965 L-31.683739049713328,23.728363654937368 L-31.520435418922446,23.799767038191206 L-31.35411310434549,23.863824876457436 L-31.185102323542527,23.920409988827654 L-31.013738631774455,23.96941003079902 L-30.840362255789103,24.010727717323856 L-30.665317418332513,24.044281015960117 L-30.48895165472653,24.0700033097392 L-30.311615122869608,24.087843529427776 L-30.133659908030694,24.09776625492102 L-29.955439323816535,24.09975178556596 L-29.777307210700204,24.093796179275287 L-29.599617233503608,24.079911260354017 L-29.422722179228693,24.05812459602342 L-29.24697325663155,24.028479441688848 L-29.07271939892989,23.99103465506015 L-28.900306571028484,23.945864579295126 L-28.730077082637834,23.893058895398063 L-28.562368908649955,23.832722444166414 L-28.39751501812049,23.76497501803909 L-28.23584271318948,23.689951123259668 L-28.077672979253272,23.607799712826694 L-27.923319847677707,23.518683890761277 L-27.773089772317924,23.422780588279185 L-27.627281021082588,23.320280212510262 L-27.486183083750586,23.211386268462707 L-27.350076097215833,23.096314954982727 L-27.219230289301443,22.97529473551173 L-27.093905442247358,22.84856588449331 L-26.97435037693679,22.716380010330585 L-26.860802458885367,22.578999555840998 L-26.753487126973887,22.436697277200395 L-26.65261744586028,22.2897557024109 L-26.558393682959455,22.13846657036769 L-26.471002910830883,21.983130251638457 L-26.390618635763357,21.824055152105416 L-26.317400453294294,21.661557100654004 L-26.251493731347594,21.495958722123845 L-26.19302932161907,21.32758879676699 L-26.1421232997825,21.156781607485176 L-26.09887673503217,20.983876276142055 L-26.063375489419293,20.809216090268134 L-26.035690047380882,20.63314782149515 L-26.01587537579942,20.456021037073096 L-26.0039708148712,20.278187405836807 L-26.0,20.100000000000037 " />
			<path d="M34.0,20.1 L33.996029185128805,19.92181259416323 L33.98412462420058,19.743978962926942 L33.96430995261912,19.566852178504885 L33.936624510580714,19.3907839097319 L33.901123264967836,19.21612372385798 L33.8578767002175,19.04321839251486 L33.80697067838094,18.872411203233042 L33.74850626865241,18.704041277876186 L33.68259954670572,18.538442899346023 L33.609381364236654,18.37594484789461 L33.528997089169124,18.216869748361567 L33.44160631704056,18.06153342963233 L33.347382554139735,17.910244297589124 L33.24651287302613,17.763302722799622 L33.13919754111465,17.621000444159023 L33.025649623063224,17.483619989669435 L32.90609455775265,17.351434115506706 L32.78076971069857,17.224705264488286 L32.64992390278418,17.103685045017286 L32.513816916249425,16.988613731537306 L32.37271897891742,16.87971978748975 L32.22691022768209,16.777219411720825 L32.076680152322304,16.681316109238733 L31.92232702074674,16.592200287173316 L31.76415728681053,16.51004887674034 L31.60248498187952,16.435024981960915 L31.437631091350056,16.367277555833592 L31.269922917362173,16.306941104601943 L31.099693428971523,16.254135420704877 L30.927280601070116,16.208965344939855 L30.75302674336846,16.17152055831116 L30.57727782077131,16.141875403976584 L30.4003827664964,16.120088739645986 L30.2226927892998,16.106203820724716 L30.04456067618347,16.100248214434043 L29.866340091969306,16.102233745078983 L29.688384877130392,16.112156470572227 L29.51104834527347,16.129996690260803 L29.334682581667487,16.155718984039886 L29.159637744210894,16.189272282676146 L28.98626136822554,16.230589969200985 L28.81489767645747,16.27959001117235 L28.645886895654506,16.336175123542567 L28.479564581077547,16.400232961808797 L28.31626095028667,16.471636345062635 L28.156300227524696,16.55024350849604 L28.000000000000007,16.635898384862244 L27.847670587346514,16.72843091433281 L27.699614425512763,16.827657382135694 L27.556125466303342,16.933380783303914 L27.417488593764794,17.04539121381067 L27.2839790585747,17.163466287314375 L27.15586193155696,17.287371576686127 L27.03339157740817,17.416861079443105 L26.916811149680107,17.5516777061637 L26.806352108020825,17.69155379091478 L26.702233758632957,17.83621162267762 L26.60466281886157,17.985363996717417 L26.51383300677598,18.138714784801714 L26.429924656560473,18.295959523135597 L26.35310436047748,18.456786016846365 L26.28352463811405,18.62087495981757 L26.221323633568325,18.787900568641728 L26.16662484117723,18.957531229433155 L26.11953686032991,19.1294301562166 L26.080153179853653,19.303256059584662 L26.048551992400522,19.478663824296294 L26.02479603920306,19.655305194471175 L26.008932485507387,19.832829465019522 L26.000992826930965,20.010884177934596 L26.000992826930965,20.189115822065425 L26.008932485507387,20.3671705349805 L26.02479603920306,20.544694805528845 L26.048551992400522,20.721336175703726 L26.080153179853657,20.89674394041536 L26.119536860329912,21.07056984378342 L26.16662484117724,21.242468770566866 L26.22132363356833,21.412099431358293 L26.283524638114056,21.57912504018245 L26.353104360477488,21.743213983153655 L26.429924656560484,21.904040476864424 L26.51383300677599,22.061285215198303 L26.60466281886158,22.214636003282603 L26.702233758632968,22.363788377322397 L26.806352108020835,22.508446209085236 L26.916811149680118,22.648322293836316 L27.03339157740818,22.78313892055691 L27.15586193155697,22.912628423313887 L27.283979058574715,23.036533712685642 L27.417488593764805,23.154608786189343 L27.556125466303353,23.2666192166961 L27.699614425512774,23.372342617864316 L27.847670587346524,23.4715690856672 L28.000000000000014,23.564101615137766 L28.156300227524703,23.649756491503965 L28.316260950286672,23.728363654937368 L28.479564581077554,23.799767038191206 L28.64588689565451,23.863824876457436 L28.814897676457473,23.920409988827654 L28.986261368225545,23.96941003079902 L29.159637744210897,24.010727717323856 L29.334682581667487,24.044281015960117 L29.51104834527347,24.0700033097392 L29.688384877130392,24.087843529427776 L29.866340091969306,24.09776625492102 L30.044560676183465,24.09975178556596 L30.222692789299796,24.093796179275287 L30.400382766496392,24.079911260354017 L30.577277820771307,24.05812459602342 L30.75302674336845,24.028479441688848 L30.92728060107011,23.99103465506015 L31.099693428971516,23.945864579295126 L31.269922917362166,23.893058895398063 L31.437631091350045,23.832722444166414 L31.60248498187951,23.76497501803909 L31.76415728681052,23.689951123259668 L31.922327020746728,23.607799712826694 L32.07668015232229,23.518683890761277 L32.226910227682076,23.422780588279185 L32.37271897891741,23.320280212510262 L32.51381691624942,23.211386268462707 L32.64992390278417,23.096314954982727 L32.78076971069856,22.97529473551173 L32.90609455775264,22.84856588449331 L33.02564962306321,22.716380010330585 L33.13919754111463,22.578999555840998 L33.24651287302611,22.436697277200395 L33.34738255413972,22.2897557024109 L33.441606317040545,22.13846657036769 L33.52899708916912,21.983130251638457 L33.60938136423664,21.824055152105416 L33.6825995467057,21.661557100654004 L33.748506268652406,21.495958722123845 L33.806970678380935,21.32758879676699 L33.857876700217496,21.156781607485176 L33.90112326496783,20.983876276142055 L33.93662451058071,20.809216090268134 L33.96430995261912,20.63314782149515 L33.984124624200575,20.456021037073096 L33.996029185128805,20.278187405836807 L34.0,20.100000000000037 " />

       </g>
    </g>
    
</svg>
